<svg width="70" height="70" viewBox="0 0 70 70" fill="none" xmlns="http://www.w3.org/2000/svg">
<path d="M46.8165 32.5705L36.6815 44.7508C36.4762 44.9975 36.2192 45.1961 35.9285 45.3324C35.6379 45.4686 35.3209 45.5393 34.9999 45.5393C34.6789 45.5393 34.3618 45.4686 34.0712 45.3324C33.7806 45.1961 33.5235 44.9975 33.3182 44.7508L23.1833 32.5705C22.9177 32.2511 22.7485 31.8626 22.6956 31.4506C22.6426 31.0385 22.7081 30.6199 22.8844 30.2438C23.0607 29.8676 23.3404 29.5494 23.6909 29.3263C24.0414 29.1033 24.4481 28.9847 24.8636 28.9844H45.1362C45.5516 28.9847 45.9584 29.1033 46.3089 29.3263C46.6594 29.5494 46.9391 29.8676 47.1154 30.2438C47.2916 30.6199 47.3571 31.0385 47.3042 31.4506C47.2513 31.8626 47.0821 32.2511 46.8165 32.5705Z" fill="black"/>
<path d="M61.25 35C61.25 20.5078 49.4922 8.75 35 8.75C20.5078 8.75 8.75 20.5078 8.75 35C8.75 49.4922 20.5078 61.25 35 61.25C49.4922 61.25 61.25 49.4922 61.25 35Z" stroke="black" stroke-width="2" stroke-miterlimit="10"/>
</svg>
